<svg width="15" height="15" viewBox="0 0 15 15" fill="none" xmlns="http://www.w3.org/2000/svg">
<path d="M6.5 1.91421H1.83333C1.47971 1.91421 1.14057 2.05469 0.890524 2.30474C0.640476 2.55479 0.5 2.89392 0.5 3.24755V12.5809C0.5 12.9345 0.640476 13.2736 0.890524 13.5237C1.14057 13.7737 1.47971 13.9142 1.83333 13.9142H11.1667C11.5203 13.9142 11.8594 13.7737 12.1095 13.5237C12.3595 13.2736 12.5 12.9345 12.5 12.5809V7.91421M11.5 0.914214C11.7652 0.648997 12.1249 0.5 12.5 0.5C12.8751 0.5 13.2348 0.648997 13.5 0.914214C13.7652 1.17943 13.9142 1.53914 13.9142 1.91421C13.9142 2.28929 13.7652 2.649 13.5 2.91421L7.16667 9.24755L4.5 9.91421L5.16667 7.24755L11.5 0.914214Z" stroke="#B3B3B3" stroke-linecap="round" stroke-linejoin="round"/>
</svg>
